<svg width="166" height="33" viewBox="0 0 166 33" fill="none" xmlns="http://www.w3.org/2000/svg">
<path d="M12.9508 5.0184C11.002 5.0184 10.4386 5.88273 10.4386 7.7891V10.9516H15.6367L15.1157 16.0608H10.4406V31.5662H4.2025V16.0608H0V10.9516H4.2025V7.87594C4.2025 2.72228 6.28052 4.20613e-05 12.0784 4.20613e-05C13.2941 -0.0019774 14.5078 0.0687037 15.7134 0.216124V5.02446L12.9508 5.0184Z" fill="#2D89FF"/>
<path d="M16.0682 20.6084C16.0682 14.8489 18.7965 10.5111 24.5136 10.5111C27.6317 10.5111 29.536 12.1146 30.4468 14.1057V10.9514H36.4224V31.566H30.4468V28.448C29.5805 30.4412 27.6317 32.0002 24.5136 32.0002C18.7965 32.0002 16.0682 27.6684 16.0682 21.9029V20.6084ZM22.3043 21.9958C22.3043 25.0694 23.4292 27.105 26.3311 27.105C28.8878 27.105 30.1863 25.2431 30.1863 22.2987V20.2288C30.1863 17.2844 28.8878 15.4224 26.3311 15.4224C23.4292 15.4224 22.3043 17.4581 22.3043 20.5317V21.9958V21.9958Z" fill="#2D89FF"/>
<path d="M49.414 10.5179C51.8373 10.5179 54.1334 11.039 55.3895 11.9033L54.0042 16.3219C52.7057 15.7039 51.286 15.3768 49.8461 15.3687C46.4676 15.3687 44.9994 17.3175 44.9994 20.6536V21.8653C44.9994 25.2014 46.4716 27.1502 49.8461 27.1502C51.286 27.1421 52.7057 26.815 54.0042 26.197L55.3895 30.6136C54.1334 31.4799 51.8393 32.001 49.414 32.001C42.0934 32.001 38.7593 28.059 38.7593 21.736V20.7829C38.7593 14.4599 42.0934 10.5179 49.414 10.5179Z" fill="#2D89FF"/>
<path d="M56.2118 22.0466V20.2291C56.2118 14.3827 59.5459 10.5356 66.3475 10.5356C72.7572 10.5356 75.5724 14.4332 75.5724 20.1503V23.442H62.4459C62.5771 26.2571 63.8332 27.5133 67.2926 27.5133C69.6331 27.5133 72.1009 27.0367 73.9204 26.2571L75.0614 30.5283C73.4156 31.3967 70.037 32.0449 67.0502 32.0449C59.1562 32.0429 56.2118 28.105 56.2118 22.0466ZM62.4479 19.3607H69.9845V18.8417C69.9845 16.59 69.0758 14.8028 66.3495 14.8028C63.5323 14.8048 62.4479 16.5819 62.4479 19.3526V19.3607Z" fill="#2D89FF"/>
<path d="M98.6919 21.909C98.6919 27.6685 95.9212 32.0063 90.2101 32.0063C87.0921 32.0063 84.9272 30.4473 84.0609 28.4541V31.5721H78.1721V0.599629L84.4082 0.0341797V13.8069C85.317 11.9894 87.3102 10.5152 90.2121 10.5152C95.9292 10.5152 98.6939 14.8469 98.6939 20.6125L98.6919 21.909ZM92.4558 20.4792C92.4558 17.5772 91.3309 15.4124 88.3421 15.4124C85.7855 15.4124 84.4001 17.2299 84.4001 20.1763V22.3411C84.4001 25.2855 85.7855 27.1051 88.3421 27.1051C91.3309 27.1051 92.4558 24.9402 92.4558 22.0382V20.4792Z" fill="#2D89FF"/>
<path d="M100.776 21.7785V20.7405C100.776 14.8053 104.155 10.5179 111.041 10.5179C117.928 10.5179 121.308 14.8053 121.308 20.7405V21.7785C121.308 27.7116 117.93 32.001 111.043 32.001C104.157 32.001 100.776 27.7116 100.776 21.7785ZM115.07 20.3063C115.07 17.578 113.943 15.4131 111.031 15.4131C108.119 15.4131 107.002 17.578 107.002 20.3063V22.2126C107.002 24.9409 108.129 27.1058 111.031 27.1058C113.933 27.1058 115.07 24.9409 115.07 22.2126V20.3063Z" fill="#2D89FF"/>
<path d="M123.384 21.7785V20.7405C123.384 14.8053 126.762 10.5179 133.649 10.5179C140.535 10.5179 143.914 14.8053 143.914 20.7405V21.7785C143.914 27.7116 140.535 32.001 133.649 32.001C126.762 32.001 123.384 27.7116 123.384 21.7785ZM137.678 20.3063C137.678 17.578 136.551 15.4131 133.649 15.4131C130.747 15.4131 129.622 17.578 129.622 20.3063V22.2126C129.622 24.9409 130.747 27.1058 133.649 27.1058C136.551 27.1058 137.678 24.9409 137.678 22.2126V20.3063Z" fill="#2D89FF"/>
<path d="M152.487 20.7821L158.636 10.9514H165.262L158.81 21.1295L165.522 31.566H158.897L152.487 21.4687V31.566H146.249V0.599629L152.487 0.0341797V20.7821Z" fill="#2D89FF"/>
</svg>
