<svg width="130" height="43" viewBox="0 0 130 43" fill="none" xmlns="http://www.w3.org/2000/svg">
<g clip-path="url(#clip0_2561_30500)">
<path d="M15.9506 0H17.1023C21.1007 0.0878499 25.0339 1.71307 27.8588 4.59016C26.8158 5.66632 25.751 6.69856 24.7296 7.77472C23.1433 6.32519 21.2311 5.20511 19.145 4.80978C16.0593 4.15091 12.7346 4.7439 10.1487 6.52286C7.32372 8.38967 5.41146 11.5523 4.99859 14.9345C4.54225 18.2728 5.47665 21.7868 7.62795 24.3783C9.69232 26.904 12.8432 28.4853 16.1027 28.5951C19.145 28.7708 22.3176 27.8265 24.5341 25.6741C26.2725 24.1587 27.0765 21.8527 27.3373 19.6125C23.7301 19.6125 20.1228 19.6345 16.5156 19.6125V15.0882H31.7051C32.4873 19.9419 31.3574 25.4106 27.7067 28.8807C25.2729 31.3405 21.9047 32.79 18.4713 33.0755C15.1466 33.4049 11.7132 32.768 8.75792 31.1428C5.21589 29.2321 2.39096 26.0036 1.00022 22.2041C-0.303591 18.712 -0.325321 14.7588 0.891572 11.2448C1.99981 8.03827 4.12938 5.20511 6.86739 3.22848C9.49675 1.27382 12.6911 0.197662 15.9506 0Z" fill="#4285F4"/>
<path d="M103.094 1.1416H107.744V32.504C106.202 32.504 104.637 32.5259 103.094 32.482C103.116 22.0498 103.094 11.5957 103.094 1.1416V1.1416Z" fill="#34A853"/>
<path d="M42.0478 12.0132C44.9162 11.4641 48.0236 12.0791 50.3922 13.8141C52.5435 15.3515 54.0429 17.7673 54.4992 20.4028C55.0859 23.4555 54.3471 26.7938 52.3914 29.2097C50.2835 31.911 46.8284 33.3605 43.4602 33.1409C40.3745 32.9652 37.3758 31.4059 35.5504 28.8583C33.486 26.0471 32.9862 22.1817 34.1162 18.8874C35.2462 15.3515 38.4405 12.6501 42.0478 12.0132V12.0132ZM42.6997 16.186C41.5262 16.4935 40.4397 17.1743 39.6574 18.1407C37.5496 20.6883 37.68 24.8392 40.0051 27.2111C41.3307 28.5728 43.3298 29.2097 45.1769 28.8363C46.8936 28.5288 48.393 27.3648 49.2187 25.8275C50.6529 23.214 50.2401 19.6121 48.0453 17.5696C46.6328 16.2519 44.5685 15.7028 42.6997 16.186Z" fill="#EA4335"/>
<path d="M65.081 12.0133C68.3622 11.3764 71.9477 12.2988 74.4032 14.6269C78.4016 18.2507 78.8362 25.0371 75.4246 29.21C73.3602 31.8455 70.0137 33.295 66.7107 33.1413C63.5598 33.0534 60.4524 31.4721 58.5836 28.8586C56.4758 25.9815 56.0194 22.0282 57.2146 18.668C58.4098 15.2418 61.5389 12.6283 65.081 12.0133V12.0133ZM65.7329 16.1862C64.5594 16.4937 63.4729 17.1745 62.6906 18.1189C60.6045 20.6226 60.6915 24.7077 62.9297 27.1016C64.2552 28.5291 66.3196 29.2319 68.2319 28.8366C69.9268 28.5072 71.4479 27.3651 72.2737 25.8278C73.6862 23.1923 73.2733 19.5904 71.0568 17.5479C69.6443 16.2301 67.5799 15.703 65.7329 16.1862Z" fill="#FBBC05"/>
<path d="M84.6202 13.2869C87.1191 11.7056 90.4439 11.2663 93.1384 12.628C93.9859 13.0014 94.6813 13.6383 95.3549 14.2752C95.3767 13.6822 95.3549 13.0672 95.3767 12.4523C96.8326 12.4743 98.2885 12.4523 99.7662 12.4743V31.8451C99.7444 34.7661 99.0056 37.8628 96.9195 39.9932C94.6378 42.3432 91.1393 43.0679 87.9884 42.5847C84.6202 42.0796 81.6866 39.5979 80.3828 36.4572C81.6866 35.8203 83.0556 35.3152 84.4029 34.7222C85.1634 36.5231 86.7063 38.0605 88.6403 38.4119C90.5743 38.7633 92.8125 38.2801 94.0728 36.6549C95.4201 34.9857 95.4201 32.7017 95.3549 30.6591C94.3553 31.6475 93.2036 32.526 91.8129 32.8554C88.7924 33.7119 85.4676 32.6577 83.1425 30.5933C80.7956 28.5288 79.4049 25.3442 79.5353 22.1816C79.6005 18.6018 81.5997 15.1537 84.6202 13.2869ZM89.1183 16.0981C87.7928 16.3177 86.5542 17.0644 85.7067 18.0966C83.664 20.5564 83.664 24.4877 85.7284 26.9036C86.9018 28.3311 88.7924 29.1218 90.6177 28.9241C92.3344 28.7484 93.9207 27.6503 94.7682 26.1349C96.2024 23.5653 95.9634 20.0733 94.0294 17.8331C92.8342 16.4495 90.922 15.7686 89.1183 16.0981Z" fill="#4285F4"/>
<path d="M113.32 14.407C115.928 11.9472 119.948 11.1126 123.294 12.4084C126.467 13.6163 128.488 16.6691 129.509 19.8097C124.794 21.7864 120.1 23.741 115.385 25.7177C116.036 26.9695 117.036 28.1116 118.383 28.5728C120.274 29.2536 122.534 29.012 124.12 27.7382C124.75 27.255 125.25 26.6181 125.728 26.0032C126.923 26.8158 128.118 27.6064 129.314 28.419C127.619 30.9886 124.772 32.7896 121.708 33.0751C118.318 33.4924 114.711 32.1746 112.516 29.4952C108.909 25.2784 109.257 18.2065 113.32 14.407V14.407ZM115.645 18.47C114.906 19.5462 114.602 20.8639 114.624 22.1597C117.775 20.842 120.926 19.5242 124.077 18.1845C123.555 16.9546 122.295 16.2079 121.013 16.0102C118.948 15.6369 116.797 16.757 115.645 18.47V18.47Z" fill="#EA4335"/>
</g>
<defs>
<clipPath id="clip0_2561_30500">
<rect width="130" height="43" fill="white"/>
</clipPath>
</defs>
</svg>
