<svg width="171" height="43" viewBox="0 0 171 43" fill="none" xmlns="http://www.w3.org/2000/svg">
<path d="M167.44 36.9087C166.697 36.9158 165.986 37.2171 165.464 37.7466C164.942 38.2762 164.651 38.9908 164.655 39.7344C164.658 40.4779 164.956 41.1897 165.483 41.7142C166.01 42.2387 166.724 42.5331 167.467 42.5331C168.211 42.5331 168.924 42.2387 169.451 41.7142C169.978 41.1897 170.276 40.4779 170.279 39.7344C170.283 38.9908 169.992 38.2762 169.47 37.7466C168.948 37.2171 168.238 36.9158 167.494 36.9087H167.44ZM167.44 42.2111C166.952 42.2193 166.473 42.0826 166.063 41.8184C165.653 41.5542 165.331 41.1744 165.137 40.727C164.943 40.2795 164.886 39.7846 164.973 39.3047C165.06 38.8249 165.287 38.3816 165.626 38.031C165.966 37.6805 166.401 37.4383 166.878 37.3352C167.354 37.2321 167.851 37.2727 168.305 37.4518C168.758 37.6309 169.149 37.9405 169.426 38.3415C169.704 38.7425 169.856 39.2167 169.865 39.7044V39.7458C169.878 40.3855 169.637 41.0045 169.195 41.4666C168.752 41.9286 168.144 42.196 167.504 42.2099H167.441L167.44 42.2111ZM156.645 36.1404H150.534V26.5705C150.534 24.2884 150.493 21.3508 147.356 21.3508C144.173 21.3508 143.686 23.8371 143.686 26.4043V36.1397H137.575V16.4602H143.441V19.1496H143.524C144.111 18.1458 144.959 17.32 145.978 16.7602C146.998 16.2004 148.15 15.9275 149.312 15.9706C155.505 15.9706 156.647 20.0446 156.647 25.3445L156.645 36.1404ZM130.68 13.7701C129.979 13.7702 129.293 13.5624 128.71 13.1728C128.126 12.7832 127.672 12.2295 127.403 11.5815C127.135 10.9336 127.064 10.2206 127.201 9.53266C127.338 8.84474 127.675 8.2128 128.171 7.71677C128.667 7.22073 129.299 6.88287 129.987 6.74592C130.675 6.60896 131.388 6.67906 132.036 6.94735C132.684 7.21564 133.238 7.67006 133.627 8.25317C134.017 8.83627 134.225 9.52186 134.225 10.2232C134.226 10.6889 134.134 11.1501 133.956 11.5804C133.778 12.0106 133.516 12.4016 133.187 12.731C132.858 13.0603 132.467 13.3216 132.037 13.4999C131.607 13.6782 131.146 13.77 130.68 13.7701ZM133.735 36.1404H127.618V16.4602H133.735V36.1404ZM159.691 1.00281H124.547C123.75 0.993807 122.981 1.30186 122.41 1.85927C121.84 2.41667 121.514 3.17784 121.504 3.9755V39.2652C121.513 40.0632 121.839 40.8249 122.41 41.3829C122.981 41.9409 123.749 42.2495 124.547 42.2411H159.691C160.491 42.2511 161.262 41.9433 161.835 41.3853C162.408 40.8274 162.736 40.0648 162.747 39.2652V3.97295C162.735 3.17371 162.407 2.41168 161.834 1.85429C161.261 1.29689 160.491 0.989722 159.691 1.00026V1.00281ZM104.872 21.2101C101.816 21.2101 99.9829 23.2502 99.9829 26.2229C99.9829 29.1956 101.816 31.2377 104.872 31.2377C107.928 31.2377 109.765 29.2007 109.765 26.2229C109.765 23.2451 107.931 21.2101 104.872 21.2101ZM115.391 36.1289H109.765V33.519H109.681C108.976 34.4683 108.06 35.2419 107.006 35.7794C105.953 36.3168 104.789 36.6038 103.606 36.6178C97.7346 36.6178 93.8669 32.3803 93.8669 26.3878C93.8669 20.8842 97.2896 15.8306 102.916 15.8306C105.445 15.8306 107.807 16.5225 109.193 18.4405H109.273V7.0965H115.39L115.391 36.1289ZM86.0208 24.0039C86.0325 23.5081 85.9434 23.0151 85.759 22.5548C85.5745 22.0945 85.2986 21.6764 84.9478 21.3258C84.597 20.9753 84.1787 20.6996 83.7183 20.5155C83.2578 20.3313 82.7648 20.2426 82.269 20.2546C81.2013 20.1882 80.1502 20.544 79.3424 21.2454C78.5346 21.9467 78.0347 22.9374 77.9506 24.0039H86.0208ZM91.1972 32.7246C90.1818 33.956 88.9052 34.9462 87.4598 35.6234C86.0145 36.3006 84.4367 36.6478 82.8406 36.6401C76.7297 36.6401 71.8372 32.561 71.8372 26.2446C71.8372 19.9281 76.7291 15.851 82.8406 15.851C88.5524 15.851 92.1342 19.9249 92.1342 26.2446V28.1606H77.9506C78.1272 29.2472 78.6906 30.2334 79.5369 30.9375C80.3832 31.6416 81.4554 32.016 82.5561 31.992C83.4259 31.9866 84.2805 31.7637 85.0422 31.3437C85.8038 30.9237 86.4484 30.3198 86.9171 29.5871L91.1972 32.7246ZM30.4487 16.4551H36.3171V19.1445H36.4005C36.9866 18.1403 37.8345 17.3141 38.8536 16.7542C39.8727 16.1943 41.0248 15.9217 42.1867 15.9656C48.3835 15.9656 49.5242 20.0427 49.5242 25.3394V36.1315H43.4133V26.5635C43.4133 24.2795 43.3713 21.3438 40.2306 21.3438C37.0542 21.3438 36.5641 23.8308 36.5641 26.3973V36.1289H30.4532L30.4487 16.4551ZM52.6229 7.09841H58.7338V24.4539L65.6595 16.4442H73.1517L65.1312 25.5552L72.983 36.141H65.3024L58.8153 26.4132H58.7351V36.1397H52.6242L52.6229 7.09841ZM20.9495 16.4531H27.0604V36.1327H20.9495V16.4531ZM24.0049 6.66938C24.706 6.6695 25.3913 6.87752 25.9742 7.26712C26.5571 7.65672 27.0114 8.21041 27.2796 8.85817C27.5478 9.50594 27.6179 10.2187 27.4811 10.9063C27.3442 11.5939 27.0065 12.2255 26.5107 12.7212C26.0149 13.2169 25.3833 13.5545 24.6956 13.6912C24.008 13.8279 23.2953 13.7577 22.6476 13.4894C21.9998 13.221 21.4462 12.7667 21.0567 12.1837C20.6672 11.6008 20.4593 10.9154 20.4593 10.2143C20.4593 9.74874 20.5511 9.28772 20.7293 8.85758C20.9074 8.42745 21.1686 8.03663 21.4979 7.70744C21.8271 7.37826 22.218 7.11715 22.6481 6.93904C23.0783 6.76092 23.5394 6.66929 24.0049 6.66938ZM0 7.10287H6.36104V30.2733H18.1372V36.1435H0V7.10287ZM167.886 39.8992C167.991 39.9002 168.095 39.8798 168.191 39.839C168.287 39.7983 168.374 39.7382 168.447 39.6625C168.519 39.5868 168.575 39.497 168.611 39.3987C168.647 39.3005 168.662 39.1959 168.656 39.0914C168.656 38.5185 168.311 38.2448 167.602 38.2448H166.456V41.2442H166.887V39.9367H167.416L167.429 39.9527L168.25 41.2442H168.711L167.827 39.9075L167.886 39.8992ZM167.388 39.5987H166.888V38.5847H167.521C167.849 38.5847 168.222 38.6382 168.222 39.0666C168.222 39.5593 167.844 39.5987 167.385 39.5987" fill="#0A66C2"/>
</svg>
