<svg width="140" height="32" viewBox="0 0 140 32" fill="none" xmlns="http://www.w3.org/2000/svg">
<rect y="17.2743" width="5.28191" height="10.2017" rx="2.64095" fill="#121229"/>
<rect x="9.32715" y="3.62854" width="5.28191" height="23.8475" rx="2.64095" fill="#121229"/>
<rect x="18.6533" y="9.41833" width="5.28191" height="18.0577" rx="2.64095" fill="#121229"/>
<path d="M44.2993 26.1892L40.7288 19.8822H37.3407V26.1892H33.9266V7.9457H41.3282C42.4055 7.9457 43.4045 8.21501 44.3254 8.75363C45.2462 9.27487 45.9673 9.99592 46.4885 10.9168C47.0272 11.8376 47.2965 12.8367 47.2965 13.9139C47.2965 15.0259 47.0185 16.0423 46.4625 16.9632C45.9065 17.8841 45.1594 18.6051 44.2211 19.1264L48.1826 26.1892H44.2993ZM37.3407 11.1774V16.6244H41.3282C42.0754 16.6244 42.7182 16.3638 43.2568 15.8425C43.7955 15.3039 44.0648 14.661 44.0648 13.9139C44.0648 13.1494 43.7955 12.5066 43.2568 11.9853C42.7356 11.4467 42.0927 11.1774 41.3282 11.1774H37.3407ZM55.3432 26.5541C54.1096 26.5541 52.9628 26.25 51.903 25.6419C50.8605 25.0164 50.0265 24.1824 49.401 23.1399C48.7929 22.0801 48.4888 20.9333 48.4888 19.6997C48.4888 18.4661 48.7929 17.3281 49.401 16.2856C50.0265 15.2257 50.8605 14.3917 51.903 13.7836C52.9628 13.1581 54.1096 12.8454 55.3432 12.8454C56.5768 12.8454 57.7148 13.1581 58.7573 13.7836C59.8172 14.3917 60.6512 15.2257 61.2593 16.2856C61.8848 17.3281 62.1975 18.4661 62.1975 19.6997C62.1975 20.9333 61.8848 22.0801 61.2593 23.1399C60.6512 24.1824 59.8172 25.0164 58.7573 25.6419C57.7148 26.25 56.5768 26.5541 55.3432 26.5541ZM55.3171 23.3224C55.9773 23.3224 56.5855 23.166 57.1415 22.8533C57.6974 22.5231 58.1405 22.0801 58.4706 21.5241C58.8007 20.9681 58.9658 20.36 58.9658 19.6997C58.9658 19.0395 58.8007 18.4314 58.4706 17.8754C58.1405 17.3194 57.6974 16.8763 57.1415 16.5462C56.5855 16.2161 55.9773 16.051 55.3171 16.051C54.6569 16.051 54.0487 16.2161 53.4927 16.5462C52.9368 16.8763 52.4937 17.3194 52.1636 17.8754C51.8508 18.4314 51.6945 19.0395 51.6945 19.6997C51.6945 20.36 51.8508 20.9681 52.1636 21.5241C52.4937 22.0801 52.9368 22.5231 53.4927 22.8533C54.0487 23.166 54.6569 23.3224 55.3171 23.3224ZM75.9622 23.6612C75.3193 24.5473 74.5114 25.251 73.5384 25.7722C72.5654 26.2935 71.5143 26.5541 70.3849 26.5541C69.1513 26.5541 68.0046 26.25 66.9447 25.6419C65.9022 25.0164 65.0682 24.1824 64.4427 23.1399C63.8346 22.0801 63.5305 20.9333 63.5305 19.6997C63.5305 18.4661 63.8346 17.3281 64.4427 16.2856C65.0682 15.2257 65.9022 14.3917 66.9447 13.7836C68.0046 13.1581 69.1513 12.8454 70.3849 12.8454C71.4969 12.8454 72.5394 13.106 73.5124 13.6272C74.4853 14.1311 75.2933 14.8174 75.9361 15.6862L73.2778 17.4844C72.4612 16.5288 71.4969 16.051 70.3849 16.051C69.7247 16.051 69.1165 16.2161 68.5605 16.5462C68.0046 16.8763 67.5615 17.3194 67.2314 17.8754C66.9013 18.4314 66.7362 19.0395 66.7362 19.6997C66.7362 20.36 66.9013 20.9681 67.2314 21.5241C67.5615 22.0801 68.0046 22.5231 68.5605 22.8533C69.1165 23.166 69.7247 23.3224 70.3849 23.3224C71.4969 23.3224 72.4612 22.8446 73.2778 21.889L75.9622 23.6612ZM90.6993 26.1892H86.6597L83.011 21.3156L81.1085 23.4006V26.1892H77.8767V7.9457H81.1085V18.6572L86.0081 13.1581H90.5169L85.2002 18.9439L90.6993 26.1892ZM97.4906 12.8193C98.7415 12.8193 99.8622 13.1321 100.853 13.7576C101.86 14.3657 102.642 15.191 103.198 16.2335C103.754 17.276 104.032 18.4314 104.032 19.6997C104.032 20.1167 103.997 20.499 103.928 20.8465H93.8679C94.1285 21.7673 94.589 22.4884 95.2492 23.0096C95.9095 23.5135 96.7521 23.7654 97.7772 23.7654C98.4027 23.7654 99.0022 23.6264 99.5755 23.3484C100.166 23.0704 100.609 22.7143 100.905 22.2799L103.381 23.7394C102.772 24.6429 101.982 25.3378 101.009 25.8243C100.053 26.2935 98.95 26.528 97.6991 26.528C96.3091 26.528 95.0755 26.2326 93.9982 25.6419C92.921 25.0512 92.087 24.2345 91.4963 23.1921C90.9229 22.1496 90.6362 20.9768 90.6362 19.6737C90.6362 18.3879 90.9229 17.2238 91.4963 16.1813C92.087 15.1389 92.9036 14.3222 93.9461 13.7315C94.9886 13.1234 96.1701 12.8193 97.4906 12.8193ZM101.009 18.3184C100.87 17.4844 100.479 16.8329 99.8362 16.3638C99.2107 15.8773 98.4201 15.634 97.4645 15.634C96.8043 15.634 96.1961 15.7557 95.6401 15.9989C95.1015 16.2422 94.6672 16.5723 94.337 16.9893C94.0069 17.4063 93.8332 17.8493 93.8158 18.3184H101.009ZM110.458 21.7326C110.458 22.3233 110.597 22.7316 110.875 22.9575C111.153 23.1834 111.596 23.2963 112.204 23.2963C112.569 23.2963 112.969 23.2702 113.403 23.2181V26.1892C112.587 26.2761 111.909 26.3195 111.37 26.3195C109.981 26.3195 108.938 26.0068 108.243 25.3813C107.565 24.7384 107.227 23.5917 107.227 21.9411V16.051H104.777V13.1581H107.227V9.95248L110.458 8.85787V13.1581H113.351V16.051H110.458V21.7326ZM132.387 17.0414L138.303 26.1892H134.237L130.015 19.6476L125.793 26.1892H121.727L127.643 17.0414L121.753 7.9457H125.819L130.015 14.4352L134.211 7.9457H138.277L132.387 17.0414Z" fill="#121229"/>
</svg>
