<svg width="172" height="38" viewBox="0 0 172 38" fill="none" xmlns="http://www.w3.org/2000/svg">
<rect y="21.1035" width="6.61395" height="12.7745" rx="3.30698" fill="white"/>
<rect x="11.6787" y="4.0166" width="6.61395" height="29.8616" rx="3.30698" fill="white"/>
<rect x="23.3574" y="11.2666" width="6.61396" height="22.6117" rx="3.30698" fill="white"/>
<path d="M54.9758 32L50.5918 24.256H46.4318V32H42.2398V9.6H51.3278C52.6504 9.6 53.8771 9.93067 55.0078 10.592C56.1384 11.232 57.0238 12.1173 57.6638 13.248C58.3251 14.3787 58.6558 15.6053 58.6558 16.928C58.6558 18.2933 58.3144 19.5413 57.6318 20.672C56.9491 21.8027 56.0318 22.688 54.8798 23.328L59.7438 32H54.9758ZM46.4318 13.568V20.256H51.3278C52.2451 20.256 53.0344 19.936 53.6958 19.296C54.3571 18.6347 54.6878 17.8453 54.6878 16.928C54.6878 15.9893 54.3571 15.2 53.6958 14.56C53.0558 13.8987 52.2664 13.568 51.3278 13.568H46.4318ZM68.5358 32.448C67.0211 32.448 65.6131 32.0747 64.3118 31.328C63.0318 30.56 62.0078 29.536 61.2398 28.256C60.4931 26.9547 60.1198 25.5467 60.1198 24.032C60.1198 22.5173 60.4931 21.12 61.2398 19.84C62.0078 18.5387 63.0318 17.5147 64.3118 16.768C65.6131 16 67.0211 15.616 68.5358 15.616C70.0504 15.616 71.4478 16 72.7278 16.768C74.0291 17.5147 75.0531 18.5387 75.7998 19.84C76.5678 21.12 76.9518 22.5173 76.9518 24.032C76.9518 25.5467 76.5678 26.9547 75.7998 28.256C75.0531 29.536 74.0291 30.56 72.7278 31.328C71.4478 32.0747 70.0504 32.448 68.5358 32.448ZM68.5038 28.48C69.3144 28.48 70.0611 28.288 70.7438 27.904C71.4264 27.4987 71.9704 26.9547 72.3758 26.272C72.7811 25.5893 72.9838 24.8427 72.9838 24.032C72.9838 23.2213 72.7811 22.4747 72.3758 21.792C71.9704 21.1093 71.4264 20.5653 70.7438 20.16C70.0611 19.7547 69.3144 19.552 68.5038 19.552C67.6931 19.552 66.9464 19.7547 66.2638 20.16C65.5811 20.5653 65.0371 21.1093 64.6318 21.792C64.2478 22.4747 64.0558 23.2213 64.0558 24.032C64.0558 24.8427 64.2478 25.5893 64.6318 26.272C65.0371 26.9547 65.5811 27.4987 66.2638 27.904C66.9464 28.288 67.6931 28.48 68.5038 28.48ZM93.8525 28.896C93.0632 29.984 92.0712 30.848 90.8765 31.488C89.6819 32.128 88.3912 32.448 87.0045 32.448C85.4899 32.448 84.0819 32.0747 82.7805 31.328C81.5005 30.56 80.4765 29.536 79.7085 28.256C78.9619 26.9547 78.5885 25.5467 78.5885 24.032C78.5885 22.5173 78.9619 21.12 79.7085 19.84C80.4765 18.5387 81.5005 17.5147 82.7805 16.768C84.0819 16 85.4899 15.616 87.0045 15.616C88.3699 15.616 89.6499 15.936 90.8445 16.576C92.0392 17.1947 93.0312 18.0373 93.8205 19.104L90.5565 21.312C89.5539 20.1387 88.3699 19.552 87.0045 19.552C86.1939 19.552 85.4472 19.7547 84.7645 20.16C84.0819 20.5653 83.5379 21.1093 83.1325 21.792C82.7272 22.4747 82.5245 23.2213 82.5245 24.032C82.5245 24.8427 82.7272 25.5893 83.1325 26.272C83.5379 26.9547 84.0819 27.4987 84.7645 27.904C85.4472 28.288 86.1939 28.48 87.0045 28.48C88.3699 28.48 89.5539 27.8933 90.5565 26.72L93.8525 28.896ZM111.947 32H106.987L102.507 26.016L100.171 28.576V32H96.2033V9.6H100.171V22.752L106.187 16H111.723L105.195 23.104L111.947 32ZM120.286 15.584C121.822 15.584 123.198 15.968 124.414 16.736C125.651 17.4827 126.611 18.496 127.294 19.776C127.976 21.056 128.318 22.4747 128.318 24.032C128.318 24.544 128.275 25.0133 128.19 25.44H115.838C116.158 26.5707 116.723 27.456 117.534 28.096C118.344 28.7147 119.379 29.024 120.638 29.024C121.406 29.024 122.142 28.8533 122.846 28.512C123.571 28.1707 124.115 27.7333 124.478 27.2L127.518 28.992C126.771 30.1013 125.8 30.9547 124.606 31.552C123.432 32.128 122.078 32.416 120.542 32.416C118.835 32.416 117.32 32.0533 115.998 31.328C114.675 30.6027 113.651 29.6 112.926 28.32C112.222 27.04 111.87 25.6 111.87 24C111.87 22.4213 112.222 20.992 112.926 19.712C113.651 18.432 114.654 17.4293 115.934 16.704C117.214 15.9573 118.664 15.584 120.286 15.584ZM124.606 22.336C124.435 21.312 123.955 20.512 123.166 19.936C122.398 19.3387 121.427 19.04 120.254 19.04C119.443 19.04 118.696 19.1893 118.014 19.488C117.352 19.7867 116.819 20.192 116.414 20.704C116.008 21.216 115.795 21.76 115.774 22.336H124.606ZM136.208 26.528C136.208 27.2533 136.379 27.7547 136.72 28.032C137.061 28.3093 137.605 28.448 138.352 28.448C138.8 28.448 139.291 28.416 139.824 28.352V32C138.821 32.1067 137.989 32.16 137.328 32.16C135.621 32.16 134.341 31.776 133.488 31.008C132.656 30.2187 132.24 28.8107 132.24 26.784V19.552H129.232V16H132.24V12.064L136.208 10.72V16H139.76V19.552H136.208V26.528ZM163.133 20.768L170.397 32H165.405L160.221 23.968L155.037 32H150.045L157.309 20.768L150.077 9.6H155.069L160.221 17.568L165.373 9.6H170.365L163.133 20.768Z" fill="white"/>
</svg>
