<svg width="35" height="32" viewBox="0 0 35 32" fill="none" xmlns="http://www.w3.org/2000/svg">
<path fill-rule="evenodd" clip-rule="evenodd" d="M0.324219 10.7345C0.324219 5.37601 3.95902 0.75 9.55774 0.75H24.9531C30.5518 0.75 34.1866 5.37601 34.1866 10.7345V21.5049C34.1866 26.8616 30.5528 31.4904 24.9518 31.4761H9.55905C3.95808 31.4904 0.324219 26.8616 0.324219 21.5049V10.7345ZM9.55774 3.25C5.61804 3.25 2.82422 6.46091 2.82422 10.7345V21.5049C2.82422 25.7794 5.61805 28.987 9.55428 28.9761L9.55774 28.9761L24.9531 28.9761L24.9566 28.9761C28.8928 28.987 31.6866 25.7794 31.6866 21.5049V10.7345C31.6866 6.46091 28.8928 3.25 24.9531 3.25H9.55774ZM7.06013 10.3907C7.49347 9.85326 8.28042 9.76889 8.81783 10.2022L15.84 15.8645C16.6994 16.5437 17.9026 16.5442 18.7625 15.8659L25.7236 10.2055C26.2592 9.76992 27.0465 9.85105 27.4821 10.3867C27.9176 10.9223 27.8365 11.7096 27.3009 12.1451L20.3332 17.8108L20.3215 17.8202C18.5501 19.2256 16.0542 19.2256 14.2827 17.8202L14.275 17.8141L14.275 17.814L7.24858 12.1484C6.71117 11.715 6.6268 10.9281 7.06013 10.3907Z" fill="#121229"/>
</svg>
