<svg width="111" height="37" viewBox="0 0 111 37" fill="none" xmlns="http://www.w3.org/2000/svg">
<path d="M104.607 5.66687H97.6734V0H85.6992L80.0323 5.66687H73.725L70.5782 8.81358V5.66687H64.9114V0H43.4831V5.66687H17.6411L11.9742 0H0V25.2016L5.66687 30.8684L15.1209 36.5353H23.3079V35.2683L26.4547 36.5353H41.7287L44.4299 33.3886L44.778 36.5353H54.7751L54.9839 33.3886L58.5901 36.5353H67.4176L68.0442 33.3886L71.1909 36.5353H81.2715L84.4182 33.3886V36.5353H90.0851L94.4988 33.3886V36.5353H100.806L110.26 30.2279V11.3477L104.607 5.66687ZM15.1209 15.1209H9.45406V21.4283H15.1209V28.3622H6.93391L2.52015 23.9484V2.52016H9.45406V8.18702H15.1209V15.1209ZM43.4831 23.9484L39.0694 28.3622H17.6411V8.18702H24.575V21.4144H27.0951V8.18702H34.029V21.4144H36.5492V8.18702H43.4831V23.9484ZM52.9372 28.3622H46.0033V8.18702H52.9372V28.3622ZM52.9372 5.66687H46.0033V2.52016H52.9372V5.66687ZM68.0581 15.1209H62.3773V21.4283H68.0442V28.3622H59.8571L55.4573 23.9484V2.52016H62.3773V8.18702H68.0442V15.1209H68.0581ZM85.6992 15.1209H77.5122V21.4283H85.6992V28.3622H74.992L70.5782 23.9484V12.6008L74.992 8.18702H85.6992V15.1209ZM107.754 28.3622H100.82V15.1349H95.1532V28.3622H88.2193V2.52016H95.1532V8.18702H103.34L107.754 12.6008V28.3622Z" fill="#9147FF"/>
</svg>
